<svg width="63" height="76" viewBox="0 0 63 76" fill="none" xmlns="http://www.w3.org/2000/svg">
<path d="M29.8908 61.3C25.7308 61.3 22.0508 64.34 22.0508 68.96C22.0508 72.98 24.8608 75.46 28.6308 75.46C32.9108 75.46 36.7008 72.75 36.7008 67.84C36.7008 63.82 33.8408 61.3 29.8908 61.3Z" fill="#9EE870"/>
<path d="M27.9707 15.46C30.5807 14.23 32.7207 14.92 33.5007 16.58C34.8807 19.51 32.1307 22.49 22.4307 26.95C21.4907 23.75 22.2408 18.16 27.9608 15.46M62.9208 27.88L45.6608 29.97L48.3307 33.2C45.6208 35.89 42.4008 38.11 38.7108 39.85C35.1008 41.55 31.9207 42.03 29.4507 41.32C28.1507 40.91 27.0507 40.03 26.3607 39.11C45.5407 30.74 53.7407 21.1 48.3307 9.64998C43.8908 0.30998 33.9808 -1.41002 24.4408 3.08998C12.1707 8.87998 6.90075 20.04 7.22075 31.02C3.22075 31.57 0.510742 31.58 0.510742 31.58L2.40074 44.31C5.12074 44.55 7.81075 44.43 10.3607 44.09C16.3707 56.77 27.0007 60.31 40.4507 53.97C44.9107 51.86 51.4308 48.1 56.1008 42.6L59.5807 46.81L62.9208 27.88Z" fill="#9EE870"/>
</svg>
